<?xml version="1.0" encoding="UTF-8"?>
<svg version="1.1" xmlns="http://www.w3.org/2000/svg" width="505" height="494">
<path d="M0 0 C1.41559891 -0.00374369 2.83119576 -0.00834805 4.2467894 -0.01373065 C8.10935096 -0.02588762 11.97182543 -0.02570886 15.83440173 -0.02334189 C20.01115586 -0.02293186 24.18788276 -0.03399069 28.36462402 -0.04345703 C36.53803996 -0.06002852 44.71142704 -0.06556486 52.88485838 -0.06668179 C59.53395004 -0.06763422 66.18303223 -0.07175422 72.8321209 -0.07808304 C91.71206391 -0.09568595 110.59198424 -0.10492355 129.47193552 -0.10342209 C130.99680255 -0.10330222 130.99680255 -0.10330222 132.55247498 -0.10317993 C133.57030435 -0.10309817 134.58813373 -0.10301641 135.63680642 -0.10293217 C152.12009523 -0.10211983 168.60329254 -0.12124688 185.08655489 -0.14945666 C202.03944259 -0.17823958 218.99228574 -0.19199395 235.94519848 -0.19026911 C245.45164954 -0.18960701 254.95800471 -0.19501984 264.46443367 -0.21662521 C272.56059258 -0.23490845 280.65661213 -0.23912616 288.75278283 -0.22560637 C292.8766044 -0.21911218 297.0001592 -0.21882949 301.12395477 -0.23631287 C332.67559431 -0.36157378 360.97982133 3.21461473 384.73875427 26.26742554 C385.6591449 27.07760132 385.6591449 27.07760132 386.59812927 27.90414429 C400.89205359 40.91948363 409.65076326 62.53343375 410.96448088 81.53177285 C411.31062822 90.39585193 411.27130368 99.26387475 411.23233485 108.13290513 C411.21903901 112.17037761 411.22910813 116.20780599 411.23609924 120.24528503 C411.24612527 128.13117302 411.23497445 136.01689177 411.21639864 143.9027587 C411.1955209 153.09983554 411.19577388 162.29687684 411.1967438 171.49397292 C411.19774257 187.90815733 411.17948679 204.32226349 411.15037537 220.73641968 C411.12218249 236.64105657 411.10803503 252.54562465 411.10935974 268.45028687 C411.10943965 269.43071826 411.10951957 270.41114965 411.1096019 271.42129109 C411.10968261 272.40007933 411.10976332 273.37886756 411.10984647 274.38731605 C411.11122801 292.53388237 411.0994385 310.68041965 411.08154004 328.82697654 C411.07552282 335.22906128 411.07338279 341.63114066 411.07247543 348.03322792 C411.07110761 355.83734323 411.06212853 363.64140952 411.04380982 371.44550405 C411.03461208 375.42272418 411.02846867 379.39988187 411.03099823 383.37711334 C411.03320534 387.02430195 411.02604894 390.67135298 411.01170118 394.31851294 C411.00641627 396.24841227 411.01076518 398.17833076 411.01556528 400.10823137 C410.95617472 410.88229494 409.53271119 421.05908576 406.05125427 431.26742554 C405.79142761 432.03433716 405.53160095 432.80124878 405.26390076 433.59140015 C399.67156294 449.43165134 389.04713679 463.07314577 375.73875427 473.26742554 C375.07875427 473.26742554 374.41875427 473.26742554 373.73875427 473.26742554 C373.73875427 473.92742554 373.73875427 474.58742554 373.73875427 475.26742554 C357.71037706 484.97505642 342.30438233 490.68422003 323.73875427 493.26742554 C322.60184237 493.44072765 321.46493048 493.61402977 320.2935667 493.79258347 C314.52972725 494.50250637 308.75855987 494.41209703 302.95941162 494.40786743 C301.68107411 494.41083855 300.4027366 494.41380968 299.08566159 494.41687083 C295.55277946 494.42489864 292.0199177 494.42672805 288.48702753 494.4274683 C284.67009275 494.42932636 280.85316835 494.43687768 277.03623962 494.44360352 C268.69466172 494.45715969 260.35308864 494.46320798 252.01150155 494.46761417 C246.79437106 494.4703825 241.5772424 494.47462105 236.36011314 494.47911835 C221.89242958 494.49130994 207.42474749 494.50160786 192.95705891 494.50499344 C191.56920825 494.50532279 191.56920825 494.50532279 190.1533202 494.50565879 C188.76228145 494.50598621 188.76228145 494.50598621 187.3431409 494.50632024 C185.46418846 494.50676369 183.58523601 494.50721026 181.70628357 494.50765991 C180.30826689 494.50799206 180.30826689 494.50799206 178.88200744 494.50833091 C163.80704101 494.51227218 148.73212311 494.52970617 133.6571754 494.55301943 C118.14965864 494.57680628 102.64216614 494.5891987 87.13463086 494.59036136 C78.44015336 494.59127427 69.74573904 494.5969288 61.05127907 494.61518097 C53.64172733 494.63068161 46.23225828 494.63564449 38.82269339 494.62744287 C35.05095258 494.62357059 31.27937773 494.62429516 27.507658 494.63850021 C-6.63979944 494.75952328 -38.01946623 492.21096002 -64.26124573 468.26742554 C-65.05015198 467.55973022 -65.83905823 466.85203491 -66.65187073 466.12289429 C-83.54416525 450.1786367 -93.10976215 426.02032878 -94.44957042 403.03684592 C-94.52270222 399.53365564 -94.53752961 396.03525669 -94.52867126 392.53131104 C-94.53241679 391.18497055 -94.53702187 389.83863224 -94.54240191 388.49229729 C-94.55453599 384.82582048 -94.55438289 381.15943555 -94.55201316 377.49294329 C-94.55160254 373.52547865 -94.5626674 369.55804253 -94.5721283 365.59059143 C-94.5886867 357.82973342 -94.59423551 350.06890581 -94.59535305 342.3080316 C-94.59630602 335.99410863 -94.60042869 329.68019561 -94.6067543 323.36627579 C-94.62435295 305.43297866 -94.63359538 287.49970539 -94.63209336 269.56639956 C-94.63201344 268.60116587 -94.63193353 267.63593217 -94.6318512 266.64144897 C-94.63176943 265.67502555 -94.63168767 264.70860213 -94.63160343 263.71289314 C-94.63079102 248.06061448 -94.64992116 232.40843216 -94.67812793 216.75618134 C-94.70691637 200.65303097 -94.72066494 184.5499275 -94.71894038 168.44675076 C-94.71827851 159.41874247 -94.7236811 150.39083518 -94.74529648 141.36285019 C-94.76358697 133.67477876 -94.7677915 125.9868541 -94.75427763 118.29877023 C-94.74778729 114.38353896 -94.74748646 110.46858861 -94.76498413 106.55338478 C-94.84749238 86.8552082 -94.86758923 68.03787331 -85.26124573 50.26742554 C-84.70823792 49.17172241 -84.1552301 48.07601929 -83.58546448 46.94711304 C-78.78870172 37.74737065 -72.62334185 30.52427368 -65.26124573 23.26742554 C-64.58319885 22.57906616 -63.90515198 21.89070679 -63.20655823 21.18148804 C-46.44323388 5.28151086 -22.33887153 -0.05346146 0 0 Z M38.72982693 88.59442043 C38.40277295 89.47651212 38.07571898 90.3586038 37.73875427 91.26742554 C37.03105896 92.94191772 37.03105896 92.94191772 36.30906677 94.65023804 C35.82356357 95.89618593 35.34192849 97.14364657 34.86375427 98.39242554 C32.64168469 104.09199898 30.24911564 109.66543889 27.62156677 115.19320679 C26.60821507 117.19842293 26.60821507 117.19842293 26.73875427 119.26742554 C28.33702812 119.29834793 28.33702812 119.29834793 29.96759033 119.32989502 C40.04492628 119.52602824 50.12203349 119.73155384 60.19899464 119.94610405 C65.3787525 120.05608978 70.55853369 120.16284945 75.73851013 120.26205444 C80.74428019 120.35804488 85.74980129 120.46274723 90.75527 120.57330704 C92.6580091 120.6138382 94.56081602 120.651313 96.46367836 120.68557358 C114.7364371 121.01825188 132.24645805 122.73234748 147.88328552 133.13070679 C149.66032557 134.44155676 149.66032557 134.44155676 151.73875427 134.26742554 C151.73875427 134.92742554 151.73875427 135.58742554 151.73875427 136.26742554 C152.60500427 136.92742554 153.47125427 137.58742554 154.36375427 138.26742554 C159.9912419 142.79070164 163.11821211 149.19871431 165.32591248 155.9480896 C165.72469353 157.16193329 165.72469353 157.16193329 166.13153076 158.40029907 C166.4321064 159.32452667 166.4321064 159.32452667 166.73875427 160.26742554 C166.09122759 160.26650374 165.4437009 160.26558195 164.7765522 160.26463223 C149.03680311 160.24256904 133.29705937 160.22601009 117.55729866 160.21561337 C109.94574046 160.21045224 102.33419257 160.20341302 94.72264099 160.19198608 C88.0901218 160.18203366 81.45761007 160.17557077 74.82508361 160.17333704 C71.3116799 160.17203089 67.79829755 160.16895102 64.28490067 160.16169548 C60.3673334 160.15367056 56.44978723 160.15343476 52.5322113 160.15390015 C51.3612088 160.15030487 50.1902063 160.14670959 48.98371887 160.14300537 C47.92078613 160.14438004 46.85785339 160.1457547 45.76271057 160.14717102 C44.83538683 160.14624923 43.90806309 160.14532743 42.95263863 160.14437771 C40.69718632 160.12283921 40.69718632 160.12283921 38.73875427 161.26742554 C37.8955826 163.04344832 37.13940874 164.86110251 36.42625427 166.69320679 C35.99055115 167.79986694 35.55484802 168.9065271 35.10594177 170.04672241 C34.6547699 171.21267944 34.20359802 172.37863647 33.73875427 173.57992554 C32.84437635 175.86825533 31.94859931 178.15603889 31.05125427 180.44320679 C30.65551208 181.46325806 30.2597699 182.48330933 29.85203552 183.53427124 C28.73875427 186.26742554 28.73875427 186.26742554 27.53172302 188.38143921 C26.53336746 190.7559148 27.03332735 191.85149109 27.73875427 194.26742554 C58.65495494 195.08561197 89.54575883 195.40363357 120.47215271 195.33609009 C125.83835932 195.32556035 131.2045714 195.32123144 136.57078552 195.31625366 C146.96012171 195.30576601 157.34943531 195.2888768 167.73875427 195.26742554 C167.43574925 196.70118796 167.12843258 198.13403958 166.81932068 199.5664978 C166.64865082 200.36451309 166.47798096 201.16252838 166.30213928 201.98472595 C165.578712 204.91587807 164.44163177 207.49869566 163.11375427 210.20492554 C161.31835882 213.59429997 161.31835882 213.59429997 160.73875427 217.26742554 C160.07875427 217.26742554 159.41875427 217.26742554 158.73875427 217.26742554 C157.71280555 218.58650247 156.74356878 219.94986101 155.80125427 221.32992554 C151.6157585 226.84992721 146.77322656 229.98710613 140.73875427 233.26742554 C139.8957074 233.73019897 139.05266052 234.19297241 138.18406677 234.66976929 C127.39870829 240.06244853 115.61506875 242.37575357 103.64891052 242.88070679 C102.79580292 242.91998795 101.94269531 242.9592691 101.06373596 242.9997406 C89.38710114 243.47864321 77.69972064 243.29766264 66.01707458 243.17147827 C63.03627439 243.14150032 60.05559317 243.12361552 57.07469177 243.10726929 C56.16343536 243.09380966 55.25217896 243.08035004 54.31330872 243.06648254 C53.47707977 243.06310379 52.64085083 243.05972504 51.77928162 243.0562439 C50.67729935 243.04505775 50.67729935 243.04505775 49.55305481 243.03364563 C47.48680024 243.11208473 47.48680024 243.11208473 45.73875427 245.26742554 C45.16803006 249.61976427 45.22889628 254.0071171 45.17625427 258.39242554 C45.10181091 260.21000366 45.10181091 260.21000366 45.02586365 262.06430054 C44.95771125 268.02276712 44.97989802 272.22383407 48.99266052 276.85336304 C50.21447642 278.02019799 51.46110117 279.16201138 52.73875427 280.26742554 C53.53281677 281.08211304 54.32687927 281.89680054 55.14500427 282.73617554 C55.83594177 283.40648804 56.52687927 284.07680054 57.23875427 284.76742554 C59.95754124 287.40505468 62.49786279 290.12368443 64.96531677 292.99398804 C68.96322928 297.60266287 73.26430947 301.86797116 77.61375427 306.14242554 C79.13426244 307.63750714 80.65260838 309.13479197 82.16844177 310.63461304 C82.83085876 311.28542847 83.49327576 311.9362439 84.17576599 312.60678101 C85.73875427 314.26742554 85.73875427 314.26742554 86.73875427 316.26742554 C87.39875427 316.26742554 88.05875427 316.26742554 88.73875427 316.26742554 C88.73875427 316.92742554 88.73875427 317.58742554 88.73875427 318.26742554 C89.39875427 318.26742554 90.05875427 318.26742554 90.73875427 318.26742554 C90.73875427 318.92742554 90.73875427 319.58742554 90.73875427 320.26742554 C93.07208761 322.9340922 93.07208761 322.9340922 95.73875427 325.26742554 C96.39875427 325.26742554 97.05875427 325.26742554 97.73875427 325.26742554 C97.73875427 325.92742554 97.73875427 326.58742554 97.73875427 327.26742554 C98.39875427 327.26742554 99.05875427 327.26742554 99.73875427 327.26742554 C99.73875427 327.92742554 99.73875427 328.58742554 99.73875427 329.26742554 C100.39875427 329.26742554 101.05875427 329.26742554 101.73875427 329.26742554 C101.73875427 329.92742554 101.73875427 330.58742554 101.73875427 331.26742554 C102.39875427 331.26742554 103.05875427 331.26742554 103.73875427 331.26742554 C103.96176208 331.81914429 104.1847699 332.37086304 104.41453552 332.93930054 C106.15429524 335.99799313 108.39639909 338.07480674 110.92625427 340.51742554 C116.25618563 345.72965025 121.23940735 351.10648678 125.86375427 356.95492554 C127.99840655 359.58766334 130.32746978 361.88293309 132.73875427 364.26742554 C147.02766698 378.39766915 147.02766698 378.39766915 152.14500427 384.45492554 C154.66242265 387.31787193 157.40070848 389.95140432 160.13719177 392.60336304 C161.73875427 394.26742554 161.73875427 394.26742554 162.73875427 396.26742554 C163.39875427 396.26742554 164.05875427 396.26742554 164.73875427 396.26742554 C164.73875427 396.92742554 164.73875427 397.58742554 164.73875427 398.26742554 C167.74613683 401.14977931 169.86547538 401.63786203 173.96629333 401.60800171 C175.00707031 401.60777512 176.04784729 401.60754852 177.12016296 401.60731506 C178.23695435 401.59183121 179.35374573 401.57634735 180.50437927 401.56039429 C181.65291382 401.55614944 182.80144836 401.5519046 183.98478699 401.54753113 C187.65301457 401.53073887 191.32069274 401.49308451 194.98875427 401.45492554 C197.4757255 401.43987946 199.96270535 401.42619092 202.44969177 401.41390991 C208.54623339 401.38083349 214.64245458 401.33062809 220.73875427 401.26742554 C221.73192693 398.26370124 221.73192693 398.26370124 220.81297302 395.34555054 C220.12654724 394.44062866 220.12654724 394.44062866 219.42625427 393.51742554 C218.75143005 392.59703491 218.75143005 392.59703491 218.06297302 391.65805054 C217.62598083 391.19914429 217.18898865 390.74023804 216.73875427 390.26742554 C216.07875427 390.26742554 215.41875427 390.26742554 214.73875427 390.26742554 C214.73875427 389.60742554 214.73875427 388.94742554 214.73875427 388.26742554 C214.07875427 388.26742554 213.41875427 388.26742554 212.73875427 388.26742554 C212.73875427 387.60742554 212.73875427 386.94742554 212.73875427 386.26742554 C212.07875427 386.26742554 211.41875427 386.26742554 210.73875427 386.26742554 C210.33668762 385.3820813 210.33668762 385.3820813 209.92649841 384.47885132 C208.72926433 382.2497565 207.47624232 380.70867771 205.73484802 378.88461304 C205.15928162 378.27488647 204.58371521 377.66515991 203.9907074 377.03695679 C203.39193787 376.41176147 202.79316833 375.78656616 202.17625427 375.14242554 C200.98543101 373.89174271 199.79653317 372.63922292 198.60984802 371.38461304 C198.08318542 370.83402222 197.55652283 370.2834314 197.01390076 369.71615601 C195.73875427 368.26742554 195.73875427 368.26742554 194.73875427 366.26742554 C194.07875427 366.26742554 193.41875427 366.26742554 192.73875427 366.26742554 C192.48094177 365.69508179 192.22312927 365.12273804 191.95750427 364.53305054 C190.62509485 362.05613559 189.08819309 360.13330893 187.23875427 358.01742554 C186.63031677 357.31101929 186.02187927 356.60461304 185.39500427 355.87680054 C183.8845906 354.03513049 183.8845906 354.03513049 181.73875427 354.26742554 C181.51187927 353.71055054 181.28500427 353.15367554 181.05125427 352.57992554 C179.3689283 349.61582739 177.16753947 347.66572389 174.73875427 345.26742554 C172.67453782 343.10066041 170.64335953 340.90408634 168.61375427 338.70492554 C168.08910583 338.14096069 167.5644574 337.57699585 167.02391052 336.99594116 C164.8825701 334.6784145 162.85142989 332.42279662 160.99656677 329.86508179 C160.58148865 329.33785522 160.16641052 328.81062866 159.73875427 328.26742554 C159.07875427 328.26742554 158.41875427 328.26742554 157.73875427 328.26742554 C157.49125427 327.71055054 157.24375427 327.15367554 156.98875427 326.57992554 C154.3829225 321.75913676 150.62867575 318.06893971 146.73875427 314.26742554 C145.31908613 312.87464505 143.90259661 311.47861956 142.48875427 310.07992554 C141.80297302 309.40574585 141.11719177 308.73156616 140.41062927 308.03695679 C138.73875427 306.26742554 138.73875427 306.26742554 137.73875427 304.26742554 C137.07875427 304.26742554 136.41875427 304.26742554 135.73875427 304.26742554 C135.46676208 303.67832397 135.1947699 303.08922241 134.91453552 302.48226929 C132.03915898 297.06586232 127.23631238 292.39018714 122.73875427 288.26742554 C122.07875427 288.26742554 121.41875427 288.26742554 120.73875427 288.26742554 C120.51187927 287.73117554 120.28500427 287.19492554 120.05125427 286.64242554 C118.28305338 283.44282392 116.20205224 280.97705331 113.73875427 278.26742554 C113.07875427 278.26742554 112.41875427 278.26742554 111.73875427 278.26742554 C110.74875427 275.79242554 110.74875427 275.79242554 109.73875427 273.26742554 C111.01492615 273.22875366 111.01492615 273.22875366 112.31687927 273.18930054 C136.32041944 272.06573057 160.10832261 265.60358927 179.73875427 251.26742554 C179.73875427 250.60742554 179.73875427 249.94742554 179.73875427 249.26742554 C180.32398865 248.99543335 180.90922302 248.72344116 181.51219177 248.44320679 C195.2072532 241.2112533 204.90330735 224.32973019 209.55125427 210.14242554 C211.05195987 204.47213973 211.05195987 204.47213973 211.73875427 195.26742554 C231.53875427 194.93742554 251.33875427 194.60742554 271.73875427 194.26742554 C275.62479944 186.4953352 279.1402377 179.10492781 282.11375427 171.01742554 C282.64549255 169.59623413 282.64549255 169.59623413 283.18797302 168.14633179 C284.04414746 165.85548666 284.89434231 163.56262627 285.73875427 161.26742554 C283.8459387 159.37460996 280.5326871 160.09274298 278.01585388 160.06210327 C277.31345078 160.05220367 276.61104767 160.04230408 275.88735962 160.03210449 C273.55530723 160.00040432 271.22323443 159.97569865 268.89109802 159.95101929 C267.27826393 159.93045709 265.66543531 159.90946083 264.0526123 159.88804626 C259.79966152 159.83274962 255.5466615 159.78337398 251.29362488 159.73519897 C246.95693052 159.68503923 242.62030801 159.62932438 238.28367615 159.57406616 C229.76876286 159.46639179 221.25378963 159.36496759 212.73875427 159.26742554 C212.47828308 158.12144897 212.21781189 156.97547241 211.94944763 155.79476929 C211.59686828 154.26477438 211.2440736 152.73482908 210.89109802 151.20492554 C210.72074036 150.45275757 210.55038269 149.7005896 210.37486267 148.92562866 C207.95124305 138.47323878 203.98176727 129.70484893 198.73875427 120.26742554 C222.82875427 119.93742554 246.91875427 119.60742554 271.73875427 119.26742554 C277.32539076 107.34764267 277.32539076 107.34764267 282.67625427 95.32992554 C282.97853943 94.63447632 283.28082458 93.9390271 283.5922699 93.22250366 C284.30956294 91.5715911 285.02446013 89.91963783 285.73875427 88.26742554 C283.36912963 85.89780089 282.92080324 86.01588721 279.70601749 86.00736332 C278.85742037 86.00029773 278.00882324 85.99323214 277.13451105 85.98595244 C275.72806846 85.98957506 275.72806846 85.98957506 274.29321289 85.99327087 C273.30131751 85.9880342 272.30942214 85.98279752 271.28746933 85.97740215 C267.94249626 85.96232355 264.59767509 85.96169528 261.25267029 85.96102905 C258.86318196 85.95341291 256.47369609 85.94498637 254.08421326 85.93580627 C247.5781385 85.91380211 241.07209777 85.90503326 234.56599164 85.89997983 C230.50585203 85.896726 226.44572193 85.89020549 222.38558769 85.88297844 C211.15043854 85.86341034 199.91529825 85.84700703 188.68013096 85.84410191 C187.96082635 85.84391434 187.24152175 85.84372677 186.50042003 85.84353351 C185.04213647 85.84316726 183.58385291 85.84280356 182.12556935 85.8424424 C181.4016484 85.84225959 180.67772745 85.84207678 179.93186951 85.84188843 C179.20706805 85.84170788 178.4822666 85.84152733 177.73550146 85.84134131 C165.98466129 85.83779781 154.23400416 85.81076552 142.4832275 85.77339054 C130.42703755 85.73535005 118.37093852 85.71594475 106.31468719 85.71564239 C99.54217436 85.7150569 92.76987994 85.70650616 85.99742317 85.67764473 C79.63049416 85.65158791 73.26399902 85.64918956 66.89704132 85.66530037 C64.55524441 85.66712469 62.21342325 85.66033645 59.87167931 85.64448166 C56.68435665 85.62421108 53.49857946 85.63446113 50.3112793 85.6526947 C48.90818279 85.63289475 48.90818279 85.63289475 47.4767409 85.6126948 C42.43884593 85.53076914 42.43884593 85.53076914 38.72982693 88.59442043 Z " fill="#21AB5B" transform="translate(94.26124572753906,-0.267425537109375)"/>
<path d="M0 0 C0.33 0 0.66 0 1 0 C1 1.98 1 3.96 1 6 C-17.48 6 -35.96 6 -55 6 C-55 5.67 -55 5.34 -55 5 C-37.51 4.67 -20.02 4.34 -2 4 C-1.34 2.68 -0.68 1.36 0 0 Z " fill="#5FB683" transform="translate(368,189)"/>
<path d="M0 0 C1.4540625 0.0309375 1.4540625 0.0309375 2.9375 0.0625 C2.6075 0.7225 2.2775 1.3825 1.9375 2.0625 C1.2775 2.0625 0.6175 2.0625 -0.0625 2.0625 C-0.3925 3.0525 -0.7225 4.0425 -1.0625 5.0625 C-2.3825 5.0625 -3.7025 5.0625 -5.0625 5.0625 C-5.3925 5.7225 -5.7225 6.3825 -6.0625 7.0625 C-6.7225 6.7325 -7.3825 6.4025 -8.0625 6.0625 C-8.0625 6.7225 -8.0625 7.3825 -8.0625 8.0625 C-11.84437881 9.89941257 -14.00818308 10.22087626 -18.0625 9.0625 C-15.6098713 6.6098713 -13.11918467 5.51312057 -10 4 C-1.8528125 0.0378125 -1.8528125 0.0378125 0 0 Z " fill="#4AB177" transform="translate(268.0625,254.9375)"/>
<path d="M0 0 C4.52615993 3.67832017 8.39424999 7.41086363 12 12 C9.525 13.485 9.525 13.485 7 15 C6 13 6 13 6 9 C5.236875 9.0825 4.47375 9.165 3.6875 9.25 C1 9 1 9 -0.8125 7 C-1.204375 6.34 -1.59625 5.68 -2 5 C-1.34 4.67 -0.68 4.34 0 4 C0 2.68 0 1.36 0 0 Z " fill="#48B074" transform="translate(229,366)"/>
<path d="M0 0 C2.4375 0.75 2.4375 0.75 5 2 C5.8125 4.125 5.8125 4.125 6 6 C6.99 6 7.98 6 9 6 C11.00881937 9.01322906 12.03927918 11.52662474 13 15 C12.67 15.66 12.34 16.32 12 17 C11.67 16.01 11.34 15.02 11 14 C10.34 14 9.68 14 9 14 C7.37890625 12.13671875 7.37890625 12.13671875 5.5625 9.6875 C3.50879229 6.93295898 1.49983136 4.36222597 -1 2 C-0.67 1.34 -0.34 0.68 0 0 Z " fill="#49AD76" transform="translate(206,274)"/>
<path d="M0 0 C3.63 0 7.26 0 11 0 C7.35014753 3.64985247 1.9741743 3.58106634 -3 4 C-8.35059975 3.96933402 -13.6759712 3.49997225 -19 3 C-19 2.67 -19 2.34 -19 2 C-12.73 2 -6.46 2 0 2 C0 1.34 0 0.68 0 0 Z " fill="#3AA167" transform="translate(421,489)"/>
<path d="M0 0 C5.45156722 3.27094033 9.61869443 7.41853326 14 12 C13.34 12.66 12.68 13.32 12 14 C8.19585989 12.7319533 7.90932161 11.42086788 6 8 C4.66846734 5.69495956 4.66846734 5.69495956 3 4 C1.68 4 0.36 4 -1 4 C-0.67 2.68 -0.34 1.36 0 0 Z " fill="#44A36E" transform="translate(468,17)"/>
<path d="M0 0 C0.66 0.99 1.32 1.98 2 3 C1.01 4.98 0.02 6.96 -1 9 C-0.01 9.33 0.98 9.66 2 10 C0.35830472 12.02054804 -1.30911778 14.02043058 -3 16 C-3.33 16 -3.66 16 -4 16 C-3.6083965 10.04492601 -2.62875405 5.37180176 0 0 Z " fill="#3DA96A" transform="translate(373,177)"/>
<path d="M0 0 C0.33 0.66 0.66 1.32 1 2 C1.66 2 2.32 2 3 2 C3 4.64 3 7.28 3 10 C3.66 10 4.32 10 5 10 C5.99 13.3 6.98 16.6 8 20 C7.34 20.66 6.68 21.32 6 22 C3.10711152 14.73969251 1.13700865 7.73465096 0 0 Z " fill="#5AB281" transform="translate(2,415)"/>
<path d="M0 0 C2.9719385 1.12451727 5.33440687 2.22293791 8 4 C7.67 4.66 7.34 5.32 7 6 C7.66 6 8.32 6 9 6 C10.6875 7.8125 10.6875 7.8125 12 10 C11.67 10.99 11.34 11.98 11 13 C9.16365966 11.02354928 7.33083938 9.044035 5.5 7.0625 C4.71302734 6.21655273 4.71302734 6.21655273 3.91015625 5.35351562 C0 1.11328125 0 1.11328125 0 0 Z " fill="#52AE78" transform="translate(293,371)"/>
<path d="M0 0 C2.3125 -0.3125 2.3125 -0.3125 5 0 C6.5625 2.25 6.5625 2.25 8 5 C9.29579647 6.36984198 10.61992749 7.7151049 12 9 C11.34 9.66 10.68 10.32 10 11 C8.5 9.625 8.5 9.625 7 8 C7 7.34 7 6.68 7 6 C6.401875 5.7525 5.80375 5.505 5.1875 5.25 C2.71352479 3.83629988 1.56629745 2.34944617 0 0 Z " fill="#5EAF80" transform="translate(265,341)"/>
<path d="M0 0 C2.475 0.495 2.475 0.495 5 1 C5 1.99 5 2.98 5 4 C5.598125 4.268125 6.19625 4.53625 6.8125 4.8125 C9.04593283 6.02493496 10.49938199 6.94652273 12 9 C11.6875 11.1875 11.6875 11.1875 11 13 C11 12.34 11 11.68 11 11 C10.34 11 9.68 11 9 11 C7.4921875 9.5390625 7.4921875 9.5390625 5.875 7.625 C5.06675781 6.68527344 5.06675781 6.68527344 4.2421875 5.7265625 C3 4 3 4 3 2 C2.01 1.67 1.02 1.34 0 1 C0 0.67 0 0.34 0 0 Z " fill="#5EB081" transform="translate(243,317)"/>
<path d="M0 0 C2.90092502 2.90092502 3.55461795 3.96517325 4.6875 7.6875 C4.93886719 8.49574219 5.19023437 9.30398437 5.44921875 10.13671875 C5.63097656 10.75160156 5.81273437 11.36648437 6 12 C5.34 12 4.68 12 4 12 C3.34 11.34 2.68 10.68 2 10 C1.34 9.67 0.68 9.34 0 9 C0 6.03 0 3.06 0 0 Z " fill="#54B07B" transform="translate(492,44)"/>
<path d="M0 0 C3.59634744 3.49359465 6.83451967 7.11098131 10 11 C8.35 11 6.7 11 5 11 C5 9.68 5 8.36 5 7 C3.35 6.67 1.7 6.34 0 6 C0 4.02 0 2.04 0 0 Z " fill="#5CB785" transform="translate(140,272)"/>
<path d="M0 0 C2.31 0 4.62 0 7 0 C6.01 0.66 5.02 1.32 4 2 C4.99 2 5.98 2 7 2 C7 2.99 7 3.98 7 5 C6.34 5 5.68 5 5 5 C5.33 5.99 5.66 6.98 6 8 C5.01 8 4.02 8 3 8 C0.89229241 5.11165997 0 3.61537605 0 0 Z " fill="#57AE7A" transform="translate(293,120)"/>
<path d="M0 0 C4.13621084 3.3810038 7.81316569 6.66590534 11 11 C8 11 8 11 6.2109375 9.609375 C5.30214844 8.68898438 5.30214844 8.68898438 4.375 7.75 C3.76398438 7.14671875 3.15296875 6.5434375 2.5234375 5.921875 C0.9257803 3.90636899 0.41127602 2.51211839 0 0 Z " fill="#52A978" transform="translate(165,299)"/>
<path d="M0 0 C3.91939465 3.80411834 7.49102731 7.81576108 11 12 C8 12 8 12 6.2109375 10.390625 C5.60507813 9.68421875 4.99921875 8.9778125 4.375 8.25 C3.76398438 7.55390625 3.15296875 6.8578125 2.5234375 6.140625 C1.01742732 4.02448762 0.42274686 2.53648117 0 0 Z " fill="#54AE79" transform="translate(154,287)"/>
<path d="M0 0 C2 3 2 3 1.7578125 5.04296875 C1.171875 7.02864583 0.5859375 9.01432292 0 11 C-1.32 11 -2.64 11 -4 11 C-2.95902388 7.13351728 -1.96301592 3.50538557 0 0 Z " fill="#52AE76" transform="translate(372,104)"/>
<path d="M0 0 C0.33 0.66 0.66 1.32 1 2 C1.66 2.33 2.32 2.66 3 3 C1.7934375 3.6496875 1.7934375 3.6496875 0.5625 4.3125 C-2.27846354 5.80474002 -2.27846354 5.80474002 -3 9 C-4.32 8.67 -5.64 8.34 -7 8 C-4.69 5.36 -2.38 2.72 0 0 Z " fill="#5AB27D" transform="translate(290,234)"/>
<path d="M0 0 C0.66 0.66 1.32 1.32 2 2 C2.66 2 3.32 2 4 2 C4 3.65 4 5.3 4 7 C1 7 1 7 -2 6 C-1.34 4.02 -0.68 2.04 0 0 Z " fill="#1DA555" transform="translate(378,168)"/>
<path d="M0 0 C2.00993705 3.01490557 2.72623341 5.2149927 3.625 8.6875 C3.88539063 9.68136719 4.14578125 10.67523438 4.4140625 11.69921875 C4.60742188 12.45847656 4.80078125 13.21773437 5 14 C4.01 13.67 3.02 13.34 2 13 C0.34950283 8.56971812 -0.22973141 4.70949382 0 0 Z " fill="#63B589" transform="translate(498,56)"/>
<path d="M0 0 C0.66 0 1.32 0 2 0 C2.24042276 4.08718695 1.42258812 7.17679443 0 11 C-0.66 11 -1.32 11 -2 11 C-2.33 11.66 -2.66 12.32 -3 13 C-2.69128878 11.20767663 -2.37790936 9.41615679 -2.0625 7.625 C-1.88847656 6.62726563 -1.71445312 5.62953125 -1.53515625 4.6015625 C-1 2 -1 2 0 0 Z " fill="#58B27E" transform="translate(5,59)"/>
<path d="M0 0 C0.66 0.99 1.32 1.98 2 3 C0.68 3.33 -0.64 3.66 -2 4 C-2.33 5.98 -2.66 7.96 -3 10 C-4.32 10 -5.64 10 -7 10 C-5.33248852 6.05860922 -2.77289351 3.2107188 0 0 Z " fill="#62BA8B" transform="translate(24,28)"/>
<path d="M0 0 C2.14699969 3.44175522 2.09856795 5.7720292 1.625 9.75 C1.51414062 10.73484375 1.40328125 11.7196875 1.2890625 12.734375 C1.19367188 13.48203125 1.09828125 14.2296875 1 15 C-1 12 -1 12 -2 9 C-1.67 8.67 -1.34 8.34 -1 8 C-0.76924918 6.65252916 -0.58846937 5.29622435 -0.4375 3.9375 C-0.293125 2.638125 -0.14875 1.33875 0 0 Z " fill="#41AF73" transform="translate(503,400)"/>
<path d="M0 0 C0.33 0.99 0.66 1.98 1 3 C-0.98 3.66 -2.96 4.32 -5 5 C-5 5.66 -5 6.32 -5 7 C-6.65 7.33 -8.3 7.66 -10 8 C-6.88983545 4.71211176 -3.98381075 2.16264012 0 0 Z " fill="#5AB484" transform="translate(41,14)"/>
<path d="M0 0 C3.63 0 7.26 0 11 0 C8.60236815 2.39763185 7.66726502 2.34280586 4.375 2.625 C3.55773437 2.69976562 2.74046875 2.77453125 1.8984375 2.8515625 C1.27195312 2.90054687 0.64546875 2.94953125 0 3 C0 2.01 0 1.02 0 0 Z " fill="#42A36E" transform="translate(421,489)"/>
<path d="M0 0 C2 3 2 3 1.75 5.5625 C1 8 1 8 -1 10 C-1.66 9.67 -2.32 9.34 -3 9 C-2.01 6.03 -1.02 3.06 0 0 Z " fill="#4AB07A" transform="translate(301,215)"/>
<path d="M0 0 C2.64 0 5.28 0 8 0 C7.67 1.32 7.34 2.64 7 4 C4.03 3.505 4.03 3.505 1 3 C0.67 2.01 0.34 1.02 0 0 Z " fill="#20A057" transform="translate(415,1)"/>
<path d="M0 0 C0 3.69418201 -1.28179295 5.77836178 -3 9 C-3.33 9 -3.66 9 -4 9 C-4.125 3.25 -4.125 3.25 -3 1 C-2.01 0.67 -1.02 0.34 0 0 Z " fill="#49AA6F" transform="translate(123,111)"/>
<path d="M0 0 C2.31 1.98 4.62 3.96 7 6 C3 7 3 7 1 6 C0.375 2.9375 0.375 2.9375 0 0 Z " fill="#5FB984" transform="translate(200,335)"/>
<path d="M0 0 C2 1.0625 2 1.0625 4 3 C4.25 6.6875 4.25 6.6875 4 10 C1.997499 7.997499 1.06784629 6.593341 0 4 C0 2.68 0 1.36 0 0 Z " fill="#2FA45F" transform="translate(136,242)"/>
<path d="M0 0 C3.08089673 2.77280706 4.68775452 5.06326356 6 9 C4.68 9 3.36 9 2 9 C1.34 6.03 0.68 3.06 0 0 Z " fill="#70B98F" transform="translate(251,140)"/>
<path d="M0 0 C0 0.66 0 1.32 0 2 C1.32 2.33 2.64 2.66 4 3 C4 3.33 4 3.66 4 4 C-0.05606165 3.53199289 -3.46588679 3.12046792 -7 1 C-2.25 0 -2.25 0 0 0 Z " fill="#4EAC7A" transform="translate(70,486)"/>
<path d="M0 0 C2.475 0.99 2.475 0.99 5 2 C5 3.98 5 5.96 5 8 C0.125 4.375 0.125 4.375 -1 1 C-0.67 0.67 -0.34 0.34 0 0 Z " fill="#54AF7D" transform="translate(206,274)"/>
<path d="M0 0 C0.12375 0.639375 0.2475 1.27875 0.375 1.9375 C0.58125 2.618125 0.7875 3.29875 1 4 C1.66 4.33 2.32 4.66 3 5 C2.34 7.31 1.68 9.62 1 12 C0.34 11.34 -0.32 10.68 -1 10 C-0.9765625 7.6171875 -0.9765625 7.6171875 -0.625 4.875 C-0.51414062 3.96492187 -0.40328125 3.05484375 -0.2890625 2.1171875 C-0.19367188 1.41851562 -0.09828125 0.71984375 0 0 Z " fill="#51AF7C" transform="translate(306,195)"/>
<path d="M0 0 C3.3 0.33 6.6 0.66 10 1 C7.83735215 3.16264785 7.01811422 3.82246387 4 4 C1.75 2.0625 1.75 2.0625 0 0 Z " fill="#36A564" transform="translate(76,1)"/>
<path d="M0 0 C2.5 2.3125 2.5 2.3125 5 5 C5 5.99 5 6.98 5 8 C4.34 7.67 3.68 7.34 3 7 C3 6.34 3 5.68 3 5 C2.01 4.67 1.02 4.34 0 4 C0 2.68 0 1.36 0 0 Z " fill="#65B283" transform="translate(223,359)"/>
<path d="M0 0 C0.33 0.66 0.66 1.32 1 2 C2.32 2 3.64 2 5 2 C5.33 1.34 5.66 0.68 6 0 C6.33 1.32 6.66 2.64 7 4 C4.03 4 1.06 4 -2 4 C-2 3.01 -2 2.02 -2 1 C-1.34 0.67 -0.68 0.34 0 0 Z " fill="#31B26E" transform="translate(234,130)"/>
<path d="M0 0 C0.99 0.33 1.98 0.66 3 1 C1.02 5.455 1.02 5.455 -1 10 C-1.33 10 -1.66 10 -2 10 C-2.17942163 6.05272412 -2.09350689 3.4019487 0 0 Z " fill="#5CB17E" transform="translate(132,86)"/>
<path d="M0 0 C1.32 0.33 2.64 0.66 4 1 C4.33 2.98 4.66 4.96 5 7 C3.29115995 5.37660195 1.62553283 3.70680947 0 2 C0 1.34 0 0.68 0 0 Z " fill="#5DAF84" transform="translate(19,454)"/>
<path d="M0 0 C3.91402949 1.26941497 5.79072873 2.51167694 8 6 C5 6 5 6 3.61328125 4.6875 C2.40885417 3.125 1.20442708 1.5625 0 0 Z " fill="#52AD7A" transform="translate(222,294)"/>
<path d="M0 0 C0.33 0.66 0.66 1.32 1 2 C1.66 2.33 2.32 2.66 3 3 C1.75 4.5625 1.75 4.5625 0 6 C-2.1875 5.6875 -2.1875 5.6875 -4 5 C-2.68 3.35 -1.36 1.7 0 0 Z " fill="#1DA355" transform="translate(217,234)"/>
<path d="M0 0 C1.65 0 3.3 0 5 0 C4.67 1.98 4.34 3.96 4 6 C3.67 5.01 3.34 4.02 3 3 C0.98491642 2.26676204 0.98491642 2.26676204 -1 2 C-0.67 1.34 -0.34 0.68 0 0 Z " fill="#1E9D54" transform="translate(256,197)"/>
<path d="M0 0 C0.33 0.66 0.66 1.32 1 2 C1.66 2 2.32 2 3 2 C2.34 3.98 1.68 5.96 1 8 C-1 5 -1 5 -0.625 2.3125 C-0.41875 1.549375 -0.2125 0.78625 0 0 Z " fill="#3EAB6F" transform="translate(122,179)"/>
<path d="M0 0 C0.33 0.66 0.66 1.32 1 2 C1.66 2.33 2.32 2.66 3 3 C1.68 3 0.36 3 -1 3 C-0.67 3.99 -0.34 4.98 0 6 C-1.65 6 -3.3 6 -5 6 C-3.35 4.02 -1.7 2.04 0 0 Z " fill="#49A872" transform="translate(30,22)"/>
<path d="M0 0 C2.97 1.98 2.97 1.98 6 4 C5.34 4.66 4.68 5.32 4 6 C3.67 5.34 3.34 4.68 3 4 C1.68 4 0.36 4 -1 4 C-0.67 2.68 -0.34 1.36 0 0 Z " fill="#5DBA85" transform="translate(468,17)"/>
<path d="M0 0 C3.82097239 0.53069061 6.06171403 1.49701566 9 4 C6 5 6 5 2.8125 3.5625 C1.884375 3.046875 0.95625 2.53125 0 2 C0 1.34 0 0.68 0 0 Z " fill="#51A977" transform="translate(450,8)"/>
<path d="M0 0 C0.99 0.33 1.98 0.66 3 1 C2.67 2.32 2.34 3.64 2 5 C0.35 4.67 -1.3 4.34 -3 4 C-2.67 3.34 -2.34 2.68 -2 2 C-1.34 2 -0.68 2 0 2 C0 1.34 0 0.68 0 0 Z " fill="#43AB71" transform="translate(274,249)"/>
<path d="M0 0 C-1.24546405 3.73639216 -2.63404953 4.18756513 -6 6 C-6 4.35 -6 2.7 -6 1 C-3.92446352 0.4465236 -2.15634036 0 0 0 Z " fill="#5CAE7E" transform="translate(247,224)"/>
<path d="M0 0 C0.66 1.32 1.32 2.64 2 4 C1.34 4.66 0.68 5.32 0 6 C-0.99 6 -1.98 6 -3 6 C-2.625 3.5625 -2.625 3.5625 -2 1 C-1.34 0.67 -0.68 0.34 0 0 Z " fill="#4EB278" transform="translate(380,163)"/>
<path d="M0 0 C0.99 0 1.98 0 3 0 C3 3.3 3 6.6 3 10 C1.19669467 6.39338934 0.53400897 3.91606575 0 0 Z " fill="#62B884" transform="translate(302,139)"/>
<path d="M0 0 C0.99 0.33 1.98 0.66 3 1 C3 2.98 3 4.96 3 7 C2.34 7 1.68 7 1 7 C0.34 5.02 -0.32 3.04 -1 1 C-0.67 0.67 -0.34 0.34 0 0 Z " fill="#289E5F" transform="translate(500,69)"/>
</svg>
